<?xml version="1.0" standalone="no"?><!DOCTYPE svg PUBLIC "-//W3C//DTD SVG 1.1//EN" "http://www.w3.org/Graphics/SVG/1.1/DTD/svg11.dtd"><svg t="1760697559426" class="icon" viewBox="0 0 1024 1024" version="1.1" xmlns="http://www.w3.org/2000/svg" p-id="4675" xmlns:xlink="http://www.w3.org/1999/xlink" width="81" height="81"><path d="M768 64A32 32 0 0 0 768 0H256a32 32 0 0 0 0 64h512z m192 832a64 64 0 0 1-64 64h-768a64 64 0 0 1-64-64v-512a64 64 0 0 1 64-64h768a64 64 0 0 1 64 64v512zM96 256C43.008 256 0 299.008 0 352v576C0 980.992 43.008 1024 96 1024h832c52.992 0 96-43.008 96-96v-576C1024 299.008 980.992 256 928 256h-832z m768-64a32 32 0 0 0 0-64h-704a32 32 0 0 0 0 64h704z" fill="#929292" p-id="4676"></path></svg>