<?xml version="1.0" standalone="no"?><!DOCTYPE svg PUBLIC "-//W3C//DTD SVG 1.1//EN" "http://www.w3.org/Graphics/SVG/1.1/DTD/svg11.dtd"><svg t="1760698886099" class="icon" viewBox="0 0 1024 1024" version="1.1" xmlns="http://www.w3.org/2000/svg" p-id="10656" xmlns:xlink="http://www.w3.org/1999/xlink" width="81" height="81"><path d="M511.3 828.3c173.7 0 315.1-141.4 315.1-315.1 0-173.7-141.3-315.1-315.1-315.1-173.7 0-315.1 141.4-315.1 315.1 0.1 173.7 141.4 315.1 315.1 315.1m0 59.1c-206.6 0-374.2-167.5-374.2-374.2 0-206.6 167.6-374.1 374.2-374.1s374.1 167.5 374.1 374.1c0.1 206.7-167.4 374.2-374.1 374.2z" fill="#8a8a8a" p-id="10657"></path><path d="M486.4 657.7c-7.5 0-15.1-2.9-20.9-8.6L326.2 509.8c-11.5-11.6-11.5-30.3 0-41.8 5.8-5.8 13.3-8.6 20.9-8.6 7.5 0 15.1 2.9 20.9 8.6l118.3 118.3 188-187.9c5.8-5.8 13.4-8.7 20.9-8.7 7.5 0 15.1 2.9 20.9 8.7 11.5 11.5 11.5 30.2 0 41.7l-208.9 209c-5.7 5.7-13.3 8.6-20.8 8.6z" fill="#8a8a8a" p-id="10658"></path></svg>