<svg xmlns="http://www.w3.org/2000/svg"
      xmlns:xlink="http://www.w3.org/1999/xlink"
      t="1760697559427"
      class="icon"
      viewBox="0 0 1024 1024"
      version="1.1"
      p-id="5789"
      width="81"
      height="81">
  <path d="M928 896H96c-52.992 0-96-43.008-96-96V224c0-52.992 43.008-96 96-96h832c52.992 0 96 43.008 96 96v576c0 52.992-43.008 96-96 96zM96 192c-17.664 0-32 14.336-32 32v576c0 17.664 14.336 32 32 32h832c17.664 0 32-14.336 32-32V224c0-17.664-14.336-32-32-32H96z"
        fill="#929292"
        p-id="5790" />
  <path d="M320 768c-17.664 0-32-14.336-32-32V448c0-17.664 14.336-32 32-32s32 14.336 32 32v288c0 17.664-14.336 32-32 32zM512 768c-17.664 0-32-14.336-32-32V320c0-17.664 14.336-32 32-32s32 14.336 32 32v416c0 17.664-14.336 32-32 32zM704 768c-17.664 0-32-14.336-32-32V512c0-17.664 14.336-32 32-32s32 14.336 32 32v224c0 17.664-14.336 32-32 32zM256 192h512c17.664 0 32-14.336 32-32s-14.336-32-32-32H256c-17.664 0-32 14.336-32 32s14.336 32 32 32z"
        fill="#929292"
        p-id="5791" />
</svg>