<?xml version="1.0" standalone="no"?>
<!DOCTYPE svg PUBLIC "-//W3C//DTD SVG 1.1//EN" "http://www.w3.org/Graphics/SVG/1.1/DTD/svg11.dtd">
<svg t="1760697559438" class="icon" viewBox="0 0 1024 1024" version="1.1" xmlns="http://www.w3.org/2000/svg" p-id="5822" xmlns:xlink="http://www.w3.org/1999/xlink" width="81" height="81">
<path d="M928 896H96c-52.992 0-96-43.008-96-96V224c0-52.992 43.008-96 96-96h832c52.992 0 96 43.008 96 96v576c0 52.992-43.008 96-96 96zM96 192c-17.664 0-32 14.336-32 32v576c0 17.664 14.336 32 32 32h832c17.664 0 32-14.336 32-32V224c0-17.664-14.336-32-32-32H96z" fill="#929292" p-id="5823"></path>
<path d="M512 384l64 128 144-16-96 112 32 144-144-80-144 80 32-144-96-112 144 16z m0-64l-92.384 184.768-206.56 22.944 149.456 174.208L320 832l192-106.672L704 832l-42.512-230.08L810.944 528l-206.56-22.944L512 320z" fill="#929292" p-id="5824"></path>
</svg>